<svg width="250" height="151" viewBox="0 0 250 151" fill="none" xmlns="http://www.w3.org/2000/svg">
<path fill-rule="evenodd" clip-rule="evenodd" d="M120.876 110.137C108.22 123.997 89.942 130.011 69.0118 130.011C58.4224 130.011 48.3901 127.764 39.4227 123.749C22.9825 126.458 10.0106 126.384 5.21946 125.948C12.2304 119.516 16.0838 113.36 18.0246 108.813C6.8283 97.2579 0 81.8827 0 65.0053C0 29.1039 30.8976 0 69.0118 0C107.126 0 138.024 29.1039 138.024 65.0053C138.024 72.3147 136.743 79.3422 134.381 85.8998H147.013C152.938 85.8998 157.741 91.0384 157.741 96.9685C158.713 105.559 152.938 110.646 147.013 110.646L120.876 110.137Z" fill="#FFB049"/>
<g filter="url(#filter0_b_1853_5871)">
<path fill-rule="evenodd" clip-rule="evenodd" d="M183.308 150.835C154.684 150.835 130.273 133.85 120.813 109.996H146.745C152.856 109.996 157.81 105.034 157.81 98.9129C157.81 92.7921 152.856 87.8302 146.745 87.8302H102.85C102.491 87.8302 102.135 87.8473 101.785 87.8808H97.7599C91.8395 87.8808 87.04 83.0735 87.04 77.1433C87.04 71.2132 91.8395 66.4058 97.7599 66.4058H120.666C130.019 42.3565 154.536 25.1943 183.308 25.1943C220.141 25.1943 250 53.3199 250 88.0146C250 104.325 243.401 119.183 232.582 130.35C234.457 134.744 238.181 140.693 244.957 146.909C240.327 147.331 227.79 147.402 211.902 144.784C203.236 148.664 193.541 150.835 183.308 150.835Z" fill="#3149F1"/>
</g>
<path fill-rule="evenodd" clip-rule="evenodd" d="M57.0746 34.5046C54.3731 34.2889 52.4354 30.9489 52.7467 27.0447C53.0579 23.1404 55.5003 20.1502 58.2018 20.366C60.9033 20.5817 62.841 23.9216 62.5297 27.8259C62.2185 31.7301 59.7761 34.7203 57.0746 34.5046ZM72.2398 28.7351C71.8921 32.6363 73.7828 35.9928 76.4627 36.232C79.1426 36.4712 81.5969 33.5026 81.9445 29.6014C82.2922 25.7002 80.4015 22.3437 77.7216 22.1045C75.0417 21.8653 72.5874 24.8339 72.2398 28.7351ZM52.7449 43.3527L80.1922 44.8899C80.1922 51.0385 75.0619 60.6551 62.7491 57.9557C54.3353 56.1111 52.5739 47.4518 52.7449 43.3527Z" fill="white"/>
<path fill-rule="evenodd" clip-rule="evenodd" d="M173.985 54.8591C171.284 54.6434 169.346 51.3034 169.657 47.3992C169.969 43.4949 172.411 40.5047 175.112 40.7204C177.814 40.9362 179.752 44.2761 179.44 48.1804C179.129 52.0846 176.687 55.0748 173.985 54.8591ZM189.151 49.0897C188.803 52.9909 190.694 56.3473 193.373 56.5865C196.053 56.8257 198.508 53.8571 198.855 49.9559C199.203 46.0547 197.312 42.6982 194.632 42.459C191.952 42.2198 189.498 45.1885 189.151 49.0897ZM169.656 63.7073L197.103 65.2445C197.103 71.3931 191.973 81.0097 179.66 78.3103C171.246 76.4657 169.485 67.8064 169.656 63.7073Z" fill="white"/>
<defs>
<filter id="filter0_b_1853_5871" x="84.3431" y="22.4974" width="168.354" height="131.035" filterUnits="userSpaceOnUse" color-interpolation-filters="sRGB">
<feFlood flood-opacity="0" result="BackgroundImageFix"/>
<feGaussianBlur in="BackgroundImageFix" stdDeviation="1.34847"/>
<feComposite in2="SourceAlpha" operator="in" result="effect1_backgroundBlur_1853_5871"/>
<feBlend mode="normal" in="SourceGraphic" in2="effect1_backgroundBlur_1853_5871" result="shape"/>
</filter>
</defs>
</svg>
